HIERARCHY
ROOT Hips
{
	OFFSET 54.705898 -6.009216 95.984100
	CHANNELS 6 Xposition Yposition Zposition Xrotation Yrotation Zrotation
	JOINT spine
	{
		OFFSET 0.000000 -0.467660 8.132492
		CHANNELS 3 Xrotation Yrotation Zrotation
		JOINT spine1
		{
			OFFSET 0.000000 -0.000001 10.349800
			CHANNELS 3 Xrotation Yrotation Zrotation
			JOINT spine2
			{
				OFFSET 0.000000 -0.000001 9.916992
				CHANNELS 3 Xrotation Yrotation Zrotation
				JOINT Neck
				{
					OFFSET 0.000000 -1.213904 25.461006
					CHANNELS 3 Xrotation Yrotation Zrotation
					JOINT Head
					{
						OFFSET 0.000000 -0.000001 7.692444
						CHANNELS 3 Xrotation Yrotation Zrotation
						End Site
						{
							OFFSET 0.000000 6.140627 18.619995
						}
					}
				}
				JOINT RightShoulder
				{
					OFFSET -4.175751 0.581443 10.709602
					CHANNELS 3 Xrotation Yrotation Zrotation
					JOINT RightArm
					{
						OFFSET 0.000000 -0.000002 14.046600
						CHANNELS 3 Xrotation Yrotation Zrotation
						JOINT RightArmRoll
						{
							OFFSET 0.000000 -0.000001 7.090973
							CHANNELS 3 Xrotation Yrotation Zrotation
							JOINT RightForeArm
							{
								OFFSET 0.000000 -0.000003 20.653503
								CHANNELS 3 Xrotation Yrotation Zrotation
								JOINT RightForeArmRoll
								{
									OFFSET 0.000000 -0.000001 7.957184
									CHANNELS 3 Xrotation Yrotation Zrotation
									JOINT RightHand
									{
										OFFSET 0.000000 -0.000003 15.968292
										CHANNELS 3 Xrotation Yrotation Zrotation
										End Site
										{
											OFFSET 0.000000 0.000000 0.100006
										}
									}
								}
							}
						}
					}
				}
				JOINT LeftShoulder
				{
					OFFSET 4.175751 0.581443 10.709602
					CHANNELS 3 Xrotation Yrotation Zrotation
					JOINT LeftArm
					{
						OFFSET 0.000000 -0.000002 14.046600
						CHANNELS 3 Xrotation Yrotation Zrotation
						JOINT LeftArmRoll
						{
							OFFSET 0.000000 -0.000001 7.090973
							CHANNELS 3 Xrotation Yrotation Zrotation
							JOINT LeftForeArm
							{
								OFFSET 0.000000 -0.000003 20.653503
								CHANNELS 3 Xrotation Yrotation Zrotation
								JOINT LeftForeArmRoll
								{
									OFFSET 0.000000 -0.000001 7.957184
									CHANNELS 3 Xrotation Yrotation Zrotation
									JOINT LeftHand
									{
										OFFSET 0.000000 -0.000003 15.968292
										CHANNELS 3 Xrotation Yrotation Zrotation
										End Site
										{
											OFFSET 0.000000 0.000000 0.100006
										}
									}
								}
							}
						}
					}
				}
			}
		}
	}
	JOINT RightUpLeg
	{
		OFFSET -7.208340 1.108840 -1.321823
		CHANNELS 3 Xrotation Yrotation Zrotation
		JOINT RightUpLegRoll
		{
			OFFSET 0.000000 -0.000003 18.723801
			CHANNELS 3 Xrotation Yrotation Zrotation
			JOINT RightLeg
			{
				OFFSET 0.000000 0.000004 -23.186600
				CHANNELS 3 Xrotation Yrotation Zrotation
				JOINT RightLegRoll
				{
					OFFSET 0.000000 -0.000004 23.262398
					CHANNELS 3 Xrotation Yrotation Zrotation
					JOINT RightFoot
					{
						OFFSET 0.000000 -0.000003 19.362099
						CHANNELS 3 Xrotation Yrotation Zrotation
						JOINT RightToeBase
						{
							OFFSET 0.000000 -0.000003 16.185699
							CHANNELS 3 Xrotation Yrotation Zrotation
							End Site
							{
								OFFSET 0.006859 0.903521 7.838623
							}
						}
					}
				}
			}
		}
	}
	JOINT LeftUpLeg
	{
		OFFSET 7.208340 1.108840 -1.321823
		CHANNELS 3 Xrotation Yrotation Zrotation
		JOINT LeftUpLegRoll
		{
			OFFSET 0.000000 -0.000003 18.723900
			CHANNELS 3 Xrotation Yrotation Zrotation
			JOINT LeftLeg
			{
				OFFSET 0.000000 -0.000004 23.186501
				CHANNELS 3 Xrotation Yrotation Zrotation
				JOINT LeftLegRoll
				{
					OFFSET 0.000000 -0.000004 23.477493
					CHANNELS 3 Xrotation Yrotation Zrotation
					JOINT LeftFoot
					{
						OFFSET 0.000000 -0.000003 19.147003
						CHANNELS 3 Xrotation Yrotation Zrotation
						JOINT LeftToeBase
						{
							OFFSET 0.000000 -0.000003 16.185699
							CHANNELS 3 Xrotation Yrotation Zrotation
							End Site
							{
								OFFSET -0.030746 0.903521 7.838623
							}
						}
					}
				}
			}
		}
	}
}
MOTION
Frames: 7
Frame Time: 0.041667
54.540298 -5.333588 96.012093 -3.596219 1.303958 -0.091670 -1.008201 -0.518576 0.021536 1.987554 -1.033458 0.049754 3.632731 -1.032781 0.062128 11.822814 4.575065 -0.992342 -1.953810 -3.629284 -0.932893 -17.159617 -58.709431 -20.276772 -45.963297 -116.979216 -18.938089 -0.000000 -0.000001 -0.000006 0.838958 -3.867207 -0.487695 0.000004 -0.000012 -3.004082 -5.000167 -7.999580 0.000067 -15.065932 61.376114 17.860241 -42.440289 114.924435 27.127345 -0.000001 0.000000 0.000009 0.046850 6.713798 1.099875 0.000001 0.000001 3.008112 -5.000214 7.999131 -0.000109 -1.848183 -173.486354 2.960539 -179.999991 0.000005 -1.031996 167.757833 -0.751521 -0.601060 -0.000005 0.000000 0.171939 70.675785 6.517027 3.017506 25.456957 -7.355614 0.000001 -0.587860 171.025464 -2.857863 -0.000020 -0.000004 -0.886470 -13.731379 0.938971 0.759233 0.000000 -0.000005 -0.204946 73.292527 -6.045674 -4.290169 25.460894 7.355619 -0.005869 
54.534901 -5.344246 96.020691 -3.597000 1.301981 -0.091815 -1.008549 -0.518593 0.020966 1.987884 -1.033827 0.047765 3.633062 -1.033160 0.060140 11.801575 4.582928 -0.996715 -1.932797 -3.638884 -0.937112 -17.162713 -58.701029 -20.280345 -45.954008 -116.983054 -18.903547 -0.000002 -0.000001 -0.000006 0.846417 -3.848641 -0.487459 0.000006 -0.000012 -3.004079 -5.000168 -7.999580 0.000068 -15.055977 61.385198 17.848831 -42.405943 114.914941 27.016139 -0.000001 0.000002 0.000011 0.046874 6.673088 1.103304 -0.000000 0.000001 3.008061 -5.000215 7.999131 -0.000110 -1.847514 -173.484360 2.960321 -179.999991 0.000006 -1.031996 167.757642 -0.749557 -0.600637 -0.000005 0.000001 0.171940 70.675792 6.517061 3.016310 25.456957 -7.355614 -0.000000 -0.582866 171.029467 -2.856951 -0.000019 -0.000004 -0.886466 -13.725780 0.939420 0.759232 -0.000000 -0.000006 -0.204839 73.291618 -6.045508 -4.288692 25.460896 7.355620 -0.005869 
54.543800 -5.342161 96.020096 -3.597746 1.300033 -0.091739 -1.008943 -0.518619 0.020411 1.988204 -1.034227 0.045740 3.633381 -1.033578 0.058116 11.780234 4.590813 -1.001100 -1.911314 -3.648445 -0.941337 -17.165730 -58.692553 -20.283825 -45.945658 -116.985991 -18.871382 0.000001 -0.000002 -0.000005 0.855172 -3.831085 -0.487287 0.000003 -0.000011 -3.004079 -5.000171 -7.999581 0.000069 -15.045139 61.394378 17.836390 -42.372854 114.904655 26.907330 0.000000 0.000001 0.000010 0.046911 6.632817 1.106683 0.000001 0.000001 3.007980 -5.000214 7.999130 -0.000109 -1.846846 -173.483363 2.960085 -179.999991 0.000006 -1.031995 167.757451 -0.747607 -0.601214 -0.000004 0.000000 0.171940 70.675888 6.517029 3.015200 25.456959 -7.355613 -0.000001 -0.577838 171.033456 -2.856046 -0.000020 -0.000004 -0.886463 -13.720084 0.939870 0.759234 0.000001 -0.000006 -0.204727 73.290484 -6.045321 -4.287427 25.460901 7.355619 -0.005869 
54.546196 -5.328957 96.018494 -3.598464 1.298096 -0.091508 -1.009351 -0.518649 0.019867 1.988514 -1.034646 0.043690 3.633693 -1.034007 0.056066 11.758792 4.598729 -1.005492 -1.889511 -3.657985 -0.945562 -17.168746 -58.684063 -20.287289 -45.936816 -116.988710 -18.839562 0.000001 -0.000000 -0.000001 0.864833 -3.814245 -0.487156 0.000003 -0.000012 -3.004081 -5.000168 -7.999580 0.000066 -15.033660 61.403626 17.823211 -42.338290 114.895106 26.797513 -0.000002 0.000000 0.000009 0.046958 6.592868 1.110021 0.000001 0.000001 3.007902 -5.000213 7.999131 -0.000109 -1.846184 -173.482365 2.959819 -179.999991 0.000006 -1.031995 167.757150 -0.745645 -0.600792 -0.000005 0.000000 0.171940 70.675983 6.516997 3.013989 25.456955 -7.355614 0.000001 -0.572773 171.037431 -2.855125 -0.000020 -0.000005 -0.886458 -13.714182 0.940325 0.759234 0.000001 -0.000005 -0.204613 73.289330 -6.045074 -4.286254 25.460898 7.355619 -0.005870 
54.542992 -5.333576 96.019897 -3.599173 1.296169 -0.091190 -1.009789 -0.518683 0.019328 1.988824 -1.035086 0.041625 3.634003 -1.034456 0.054002 11.737250 4.606658 -1.009880 -1.867516 -3.667515 -0.949787 -17.171719 -58.675580 -20.290711 -45.929221 -116.990690 -18.809603 0.000001 -0.000001 -0.000005 0.875015 -3.797808 -0.487058 0.000002 -0.000013 -3.004080 -5.000168 -7.999580 0.000064 -15.021831 61.412908 17.809609 -42.303695 114.885571 26.687970 -0.000001 0.000000 0.000009 0.047007 6.553108 1.113326 0.000002 0.000000 3.007811 -5.000215 7.999130 -0.000110 -1.845527 -173.480357 2.959499 -179.999991 0.000005 -1.031996 167.756946 -0.743696 -0.601368 -0.000005 0.000000 0.171940 70.676079 6.516967 3.012777 25.456957 -7.355613 -0.000001 -0.567693 171.041433 -2.854205 -0.000020 -0.000004 -0.886453 -13.708283 0.940777 0.759236 -0.000001 -0.000005 -0.204496 73.288066 -6.044807 -4.285183 25.460900 7.355619 -0.005869 
54.535301 -5.342458 96.014496 -3.599879 1.294242 -0.090849 -1.010218 -0.518718 0.018791 1.989134 -1.035516 0.039557 3.634312 -1.034905 0.051935 11.715712 4.614596 -1.014265 -1.845480 -3.677037 -0.954005 -17.174710 -58.667097 -20.294150 -45.920065 -116.993286 -18.778009 0.000000 -0.000000 -0.000005 0.885323 -3.781469 -0.486973 0.000006 -0.000012 -3.004079 -5.000168 -7.999580 0.000065 -15.009947 61.422307 17.795955 -42.268899 114.875968 26.578334 0.000000 0.000000 0.000011 0.047057 6.513379 1.116644 -0.000001 0.000001 3.007722 -5.000215 7.999130 -0.000109 -1.844865 -173.479346 2.959212 -179.999991 0.000006 -1.031996 167.756754 -0.741745 -0.600949 -0.000005 0.000001 0.171940 70.676168 6.516934 3.011468 25.456959 -7.355615 0.000000 -0.562610 171.045422 -2.853275 -0.000020 -0.000005 -0.886447 -13.702386 0.941229 0.759239 0.000001 -0.000005 -0.204379 73.286885 -6.044509 -4.284103 25.460894 7.355620 -0.005870 
54.543396 -5.339896 96.017303 -3.600587 1.292305 -0.090553 -1.010650 -0.518752 0.018250 1.989445 -1.035945 0.037496 3.634624 -1.035353 0.049875 11.694272 4.622525 -1.018646 -1.823544 -3.686577 -0.958213 -17.177702 -58.658607 -20.297592 -45.911073 -116.995950 -18.746371 -0.000000 -0.000001 -0.000007 0.895374 -3.764939 -0.486878 0.000002 -0.000012 -3.004077 -5.000169 -7.999580 0.000065 -14.998184 61.431582 17.782454 -42.234256 114.866447 26.468747 0.000001 0.000001 0.000011 0.047106 6.473569 1.119961 -0.000002 0.000001 3.007631 -5.000215 7.999130 -0.000107 -1.844209 -173.477352 2.958903 -179.999991 0.000005 -1.031995 167.756563 -0.739782 -0.601536 -0.000005 0.000000 0.171940 70.676277 6.516940 3.010160 25.456953 -7.355613 -0.000001 -0.557535 171.049425 -2.852354 -0.000020 -0.000004 -0.886442 -13.696385 0.941683 0.759238 -0.000000 -0.000006 -0.204263 73.285730 -6.044232 -4.283023 25.460896 7.355619 -0.005869 
